<?xml version="1.0" standalone="no"?>
<!DOCTYPE svg PUBLIC "-//W3C//DTD SVG 20010904//EN"
 "http://www.w3.org/TR/2001/REC-SVG-20010904/DTD/svg10.dtd">
<svg version="1.0" xmlns="http://www.w3.org/2000/svg"
 width="128px" height="128px" viewBox="365 120 1200 1200"
 preserveAspectRatio="xMidYMid meet">

<g transform="translate(0.000000,1920.000000) scale(0.100000,-0.100000)"
 fill="#000000" stroke="none">
<path d="M12020 14444 c-547 -360 -1303 -859 -1679 -1107 -376 -249 -698 -460
-715 -469 -49 -27 -86 -22 -152 20 -32 21 -358 241 -724 489 -700 473 -2203
1487 -2280 1537 -25 17 -96 63 -157 103 l-113 73 0 -2255 0 -2255 78 54 c42
30 172 119 287 198 162 111 214 151 227 178 17 33 18 124 18 1483 0 796 3
1447 8 1447 4 0 93 -58 197 -128 1779 -1199 2536 -1702 2564 -1702 24 0 239
137 954 608 507 334 1263 832 1680 1107 417 274 769 510 783 523 l24 25 0 363
c0 200 -1 364 -2 364 -2 0 -451 -295 -998 -656z"/>
<path d="M12870 12983 c-74 -52 -191 -132 -260 -177 -69 -46 -135 -94 -147
-108 -55 -60 -53 11 -53 -1550 l0 -1440 -37 23 c-36 21 -1453 971 -2322 1556
-367 247 -397 265 -430 260 -26 -3 -166 -91 -488 -303 -249 -165 -791 -522
-1205 -794 -1482 -973 -1674 -1101 -1710 -1140 l-38 -39 0 -351 c0 -192 3
-350 6 -350 3 0 56 35 117 78 62 43 591 393 1177 778 586 386 1290 850 1565
1031 275 181 515 337 532 346 41 21 85 22 126 1 18 -9 273 -180 567 -379 1118
-757 2666 -1798 2700 -1816 l35 -19 3 1126 c1 619 1 1629 0 2244 l-3 1118
-135 -95z"/>
</g>
</svg>
