<?xml version="1.0" standalone="no"?>
<!DOCTYPE svg PUBLIC "-//W3C//DTD SVG 20010904//EN"
 "http://www.w3.org/TR/2001/REC-SVG-20010904/DTD/svg10.dtd">
<svg version="1.0" xmlns="http://www.w3.org/2000/svg"
 width="1920.000000pt" height="1920.000000pt" viewBox="0 0 1920.000000 1920.000000"
 preserveAspectRatio="xMidYMid meet">

<g transform="translate(0.000000,1920.000000) scale(0.100000,-0.100000)"
fill="#000000" stroke="none">
<path d="M12020 14444 c-547 -360 -1303 -859 -1679 -1107 -376 -249 -698 -460
-715 -469 -49 -27 -86 -22 -152 20 -32 21 -358 241 -724 489 -700 473 -2203
1487 -2280 1537 -25 17 -96 63 -157 103 l-113 73 0 -2255 0 -2255 78 54 c42
30 172 119 287 198 162 111 214 151 227 178 17 33 18 124 18 1483 0 796 3
1447 8 1447 4 0 93 -58 197 -128 1779 -1199 2536 -1702 2564 -1702 24 0 239
137 954 608 507 334 1263 832 1680 1107 417 274 769 510 783 523 l24 25 0 363
c0 200 -1 364 -2 364 -2 0 -451 -295 -998 -656z"/>
<path d="M12870 12983 c-74 -52 -191 -132 -260 -177 -69 -46 -135 -94 -147
-108 -55 -60 -53 11 -53 -1550 l0 -1440 -37 23 c-36 21 -1453 971 -2322 1556
-367 247 -397 265 -430 260 -26 -3 -166 -91 -488 -303 -249 -165 -791 -522
-1205 -794 -1482 -973 -1674 -1101 -1710 -1140 l-38 -39 0 -351 c0 -192 3
-350 6 -350 3 0 56 35 117 78 62 43 591 393 1177 778 586 386 1290 850 1565
1031 275 181 515 337 532 346 41 21 85 22 126 1 18 -9 273 -180 567 -379 1118
-757 2666 -1798 2700 -1816 l35 -19 3 1126 c1 619 1 1629 0 2244 l-3 1118
-135 -95z"/>
<path d="M7180 7290 l0 -720 100 0 100 0 1 488 1 487 81 -488 81 -488 110 3
110 3 73 478 c39 263 74 483 77 490 2 7 5 -210 5 -480 l1 -493 105 0 105 0 0
720 0 720 -158 0 -158 0 -74 -495 c-47 -312 -77 -487 -82 -473 -6 20 -158 944
-158 962 0 3 -72 6 -160 6 l-160 0 0 -720z"/>
<path d="M8890 7290 l0 -720 115 0 115 0 0 720 0 720 -115 0 -115 0 0 -720z"/>
<path d="M9870 7290 l0 -720 105 0 105 0 2 499 3 499 135 -499 134 -499 118 0
118 0 0 720 0 720 -105 0 -105 0 -1 -407 0 -408 -34 120 c-18 66 -68 249 -110
408 l-78 287 -143 0 -144 0 0 -720z"/>
<path d="M11340 7289 l0 -720 238 3 c225 3 240 4 290 27 65 29 125 95 149 164
16 47 18 95 18 532 0 477 0 480 -23 536 -30 75 -101 142 -173 163 -41 13 -102
16 -276 16 l-223 0 0 -721z m422 500 c45 -24 48 -52 48 -497 0 -281 -4 -429
-11 -451 -16 -46 -54 -61 -149 -61 l-80 0 0 510 0 510 86 0 c47 0 94 -5 106
-11z"/>
<path d="M6881 5939 c-82 -26 -148 -90 -182 -175 l-24 -59 0 -485 c0 -479 0
-486 22 -540 33 -79 74 -124 150 -162 60 -29 74 -32 162 -33 122 0 187 21 252
82 26 24 57 67 70 96 l24 52 0 505 0 505 -26 55 c-54 116 -145 171 -293 177
-72 2 -104 -1 -155 -18z m198 -203 c50 -27 51 -33 51 -521 l0 -455 -28 -31
c-59 -66 -169 -43 -192 41 -7 27 -10 183 -8 473 3 398 4 435 21 460 30 46 101
61 156 33z"/>
<path d="M4890 5937 c0 -9 150 -1358 155 -1394 l6 -43 157 0 158 0 33 318 c46
440 44 429 59 307 6 -55 24 -218 39 -362 l28 -263 152 0 152 0 6 43 c5 35 155
1385 155 1394 0 2 -45 3 -99 3 l-99 0 -6 -37 c-8 -53 -106 -1016 -106 -1044 0
-78 -15 47 -60 511 -28 289 -53 535 -56 548 -4 21 -8 22 -114 22 -61 0 -110
-3 -110 -7 -4 -54 -108 -1084 -109 -1073 -1 8 -28 254 -59 545 l-58 530 -112
3 c-62 1 -112 1 -112 -1z"/>
<path d="M8100 5220 l0 -720 218 0 c170 0 230 4 272 16 68 20 122 56 155 104
46 66 57 121 58 280 1 186 -14 244 -81 311 -26 25 -53 48 -61 51 -10 3 0 17
32 47 70 64 82 107 82 281 0 139 -1 147 -29 203 -18 38 -43 69 -69 88 -71 51
-118 59 -359 59 l-218 0 0 -720z m402 499 c34 -18 48 -70 48 -176 0 -151 -28
-183 -156 -183 l-64 0 0 185 0 185 76 0 c41 0 84 -5 96 -11z m14 -592 c45 -23
54 -60 54 -219 l0 -140 -29 -29 c-28 -28 -33 -29 -120 -29 l-91 0 0 221 0 222
78 -5 c43 -3 91 -12 108 -21z"/>
<path d="M9530 5220 l0 -720 218 0 c170 0 230 4 272 16 68 20 122 56 155 104
46 66 57 121 58 280 1 186 -14 244 -81 311 -26 25 -53 48 -61 51 -10 3 0 17
32 47 70 64 82 107 82 281 0 139 -1 147 -29 203 -18 38 -43 69 -69 88 -71 51
-118 59 -359 59 l-218 0 0 -720z m402 499 c34 -18 48 -70 48 -176 0 -151 -28
-183 -156 -183 l-64 0 0 185 0 185 76 0 c41 0 84 -5 96 -11z m14 -592 c45 -23
54 -60 54 -219 l0 -140 -29 -29 c-28 -28 -33 -29 -120 -29 l-91 0 0 221 0 222
78 -5 c43 -3 91 -12 108 -21z"/>
<path d="M10950 5220 l0 -720 300 0 300 0 0 105 0 105 -185 0 -185 0 0 615 0
615 -115 0 -115 0 0 -720z"/>
<path d="M12240 5220 l0 -720 310 0 310 0 0 105 0 105 -195 0 -195 0 0 210 0
210 155 0 155 0 0 105 0 105 -155 0 -155 0 0 195 0 195 195 0 195 0 0 105 0
105 -310 0 -310 0 0 -720z"/>
<path d="M13590 5220 l0 -720 115 0 115 0 0 290 0 290 65 0 c73 0 117 -17 137
-53 9 -15 15 -94 19 -252 4 -126 10 -240 14 -252 7 -22 12 -23 126 -23 l119 0
-11 28 c-7 15 -13 123 -16 247 -5 238 -16 305 -59 362 -13 18 -37 40 -54 49
l-29 18 32 23 c46 34 84 97 97 160 7 34 11 115 8 202 -3 137 -5 150 -32 204
-18 38 -42 69 -69 88 -71 51 -118 59 -359 59 l-218 0 0 -720z m415 486 c32
-32 37 -69 33 -220 l-3 -128 -33 -29 c-30 -27 -39 -29 -107 -29 l-75 0 0 215
0 215 80 0 c72 0 84 -3 105 -24z"/>
</g>
</svg>
